# xmcd
#
# Track frame offsets: 
#        150
#        14676
#        36210
#        57374
#        82812
#        103505
#        125589
#        149149
#        170609
#        192414
#        213029
#        228030
#
# Disc length: 3339 seconds
#
# Revision: 0
# Processed by: cddbd v1.5.2PL0 Copyright (c) Steve Scherf et al.
# Submitted via: ExactAudioCopy v0.90b4
#
DISCID=a40d090c
DTITLE=The Fat Tones - Everybody Must Get Toned
DYEAR=2009
DGENRE=Blues
TTITLE0=No Doubt
TTITLE1=Saturday Night Romance
TTITLE2=Lap Dog
TTITLE3=Lazy Day
TTITLE4=Biggest Fool
TTITLE5=Sooner or Later
TTITLE6=Do Your Own Thing
TTITLE7=Hot August Night
TTITLE8=Summertime
TTITLE9=Lack Sheep of the Family
TTITLE10=I'm the One to Blame
TTITLE11=Other Than That
EXTD=
EXTT0=
EXTT1=
EXTT2=
EXTT3=
EXTT4=
EXTT5=
EXTT6=
EXTT7=
EXTT8=
EXTT9=
EXTT10=
EXTT11=
PLAYORDER=
